<svg xmlns="http://www.w3.org/2000/svg" viewBox="0 0 512 512" width="512" height="512">
  <!-- Background Circle -->
  <rect width="512" height="512" rx="100" fill="#1a1a1a"/>
  
  <!-- Gradient Definition -->
  <defs>
    <linearGradient id="liftlioGradient" x1="0%" y1="0%" x2="100%" y2="100%">
      <stop offset="0%" style="stop-color:#FFD700;stop-opacity:1" />
      <stop offset="50%" style="stop-color:#FFA500;stop-opacity:1" />
      <stop offset="100%" style="stop-color:#FF8C00;stop-opacity:1" />
    </linearGradient>
    
    <filter id="glow">
      <feGaussianBlur stdDeviation="4" result="coloredBlur"/>
      <feMerge>
        <feMergeNode in="coloredBlur"/>
        <feMergeNode in="SourceGraphic"/>
      </feMerge>
    </filter>
  </defs>
  
  <!-- Main Logo Group -->
  <g transform="translate(256, 256)">
    <!-- Letter L with modern design -->
    <path d="M -120 -140 C -120 -140 -120 100 -120 100 C -120 120 -100 140 -80 140 L 80 140 C 80 140 80 80 80 80 C 80 80 -60 80 -60 80 C -60 80 -60 -140 -60 -140 C -60 -160 -80 -160 -100 -160 C -120 -160 -120 -140 -120 -140 Z" 
          fill="url(#liftlioGradient)" 
          filter="url(#glow)" />
    
    <!-- Growth Line -->
    <path d="M 40 60 Q 80 20 120 -20 Q 140 -40 160 -80" 
          fill="none" 
          stroke="url(#liftlioGradient)" 
          stroke-width="25" 
          stroke-linecap="round" 
          filter="url(#glow)" />
    
    <!-- Arrow Head -->
    <path d="M 140 -80 L 160 -80 L 160 -60" 
          fill="none" 
          stroke="url(#liftlioGradient)" 
          stroke-width="25" 
          stroke-linecap="round" 
          filter="url(#glow)" />
    
    <!-- Decorative Dots -->
    <circle cx="-90" cy="110" r="12" fill="url(#liftlioGradient)" opacity="0.8"/>
    <circle cx="-50" cy="110" r="12" fill="url(#liftlioGradient)" opacity="0.9"/>
    <circle cx="-10" cy="110" r="12" fill="url(#liftlioGradient)" opacity="0.8"/>
    <circle cx="30" cy="110" r="12" fill="url(#liftlioGradient)" opacity="0.7"/>
  </g>
</svg>